<svg width="16" height="15" viewBox="0 0 16 15" fill="none" xmlns="http://www.w3.org/2000/svg">
<path d="M15.3769 7.69418C15.3743 11.0018 13.2565 13.9371 10.1184 14.9823C10.0009 15.0185 9.87332 14.9986 9.7724 14.9285C9.6715 14.8551 9.61156 14.738 9.61096 14.6132V12.5606C9.62759 12.0077 9.49479 11.4606 9.22657 10.9769C9.18599 10.9136 9.18599 10.8326 9.22657 10.7693C9.25775 10.711 9.31485 10.671 9.38032 10.6617C11.2562 10.4695 12.3017 9.72377 12.3017 7.69418C12.3469 6.74653 12.0184 5.819 11.3869 5.11105C11.479 4.812 11.5281 4.50139 11.5329 4.18851C11.5296 3.90799 11.4909 3.62902 11.4176 3.35822C11.3693 3.17765 11.1958 3.05984 11.0101 3.08146C10.3058 3.18144 9.65005 3.49854 9.13431 3.98863C8.17959 3.80416 7.19839 3.80416 6.24368 3.98863C5.72794 3.49854 5.07223 3.18144 4.36784 3.08146C4.18216 3.05984 4.00872 3.17765 3.96038 3.35822C3.88711 3.62902 3.84836 3.90799 3.84506 4.18851C3.84984 4.50139 3.89903 4.812 3.99113 5.11105C3.35956 5.819 3.03106 6.74653 3.07628 7.69418C3.07628 9.8314 4.23714 10.5464 6.36668 10.7232C6.10233 11.0696 5.92087 11.472 5.83622 11.8994C5.83622 11.8994 5.83622 11.9532 5.83622 11.9917C5.83252 12.0275 5.83252 12.0635 5.83622 12.0993C5.80423 12.341 5.58692 12.5142 5.3442 12.4914C5.22846 12.486 5.11545 12.4544 5.01362 12.3991C4.59479 12.1441 4.22506 11.816 3.92194 11.4305C3.72881 11.2115 3.52348 11.0036 3.30691 10.8078C3.16931 10.6886 3.01684 10.5879 2.85333 10.5079C2.73874 10.4436 2.59889 10.4436 2.48431 10.5079C2.37431 10.5785 2.30771 10.7001 2.30749 10.8308V10.8769C2.30771 11.0076 2.37431 11.1293 2.48431 11.1998C2.76028 11.4308 2.99886 11.7031 3.19159 12.0071C3.51708 12.5171 3.93104 12.9649 4.41396 13.3294C4.73215 13.5427 5.10721 13.6552 5.49026 13.6523H5.76703V14.6132C5.76643 14.738 5.70649 14.8551 5.60558 14.9285C5.50467 14.9986 5.37709 15.0185 5.25963 14.9823C1.53259 13.7409 -0.659069 9.88943 0.17747 6.05121C1.01401 2.21298 4.60962 -0.37717 8.5152 0.0450015C12.4208 0.467173 15.3798 3.76584 15.3769 7.69418Z" fill="#8A8A8A"/>
</svg>
