<svg width="91" height="17" viewBox="0 0 91 17" fill="none" xmlns="http://www.w3.org/2000/svg">
<path d="M8.36003 16.24C6.93336 16.24 5.64003 15.9333 4.48003 15.32C3.33336 14.6933 2.4267 13.8333 1.76003 12.74C1.1067 11.6333 0.780029 10.3867 0.780029 9.00001C0.780029 7.61334 1.1067 6.37334 1.76003 5.28001C2.4267 4.17334 3.33336 3.31334 4.48003 2.70001C5.64003 2.07334 6.94003 1.76001 8.38003 1.76001C9.59336 1.76001 10.6867 1.97334 11.66 2.40001C12.6467 2.82668 13.4734 3.44001 14.14 4.24001L12.06 6.16001C11.1134 5.06668 9.94003 4.52001 8.54003 4.52001C7.67336 4.52001 6.90003 4.71334 6.22003 5.10001C5.54003 5.47334 5.0067 6.00001 4.62003 6.68001C4.2467 7.36001 4.06003 8.13334 4.06003 9.00001C4.06003 9.86668 4.2467 10.64 4.62003 11.32C5.0067 12 5.54003 12.5333 6.22003 12.92C6.90003 13.2933 7.67336 13.48 8.54003 13.48C9.94003 13.48 11.1134 12.9267 12.06 11.82L14.14 13.74C13.4734 14.5533 12.6467 15.1733 11.66 15.6C10.6734 16.0267 9.57336 16.24 8.36003 16.24Z" fill="black"/>
<path d="M20.3699 5.08001C22.0365 5.08001 23.3165 5.48001 24.2099 6.28001C25.1032 7.06668 25.5499 8.26001 25.5499 9.86001V16H22.6299V14.66C22.0432 15.66 20.9499 16.16 19.3499 16.16C18.5232 16.16 17.8032 16.02 17.1899 15.74C16.5899 15.46 16.1299 15.0733 15.8099 14.58C15.4899 14.0867 15.3299 13.5267 15.3299 12.9C15.3299 11.9 15.7032 11.1133 16.4499 10.54C17.2099 9.96668 18.3765 9.68001 19.9499 9.68001H22.4299C22.4299 9.00001 22.2232 8.48001 21.8099 8.12001C21.3965 7.74668 20.7765 7.56001 19.9499 7.56001C19.3765 7.56001 18.8099 7.65334 18.2499 7.84001C17.7032 8.01334 17.2365 8.25334 16.8499 8.56001L15.7299 6.38001C16.3165 5.96668 17.0165 5.64668 17.8299 5.42001C18.6565 5.19334 19.5032 5.08001 20.3699 5.08001ZM20.1299 14.06C20.6632 14.06 21.1365 13.94 21.5499 13.7C21.9632 13.4467 22.2565 13.08 22.4299 12.6V11.5H20.2899C19.0099 11.5 18.3699 11.92 18.3699 12.76C18.3699 13.16 18.5232 13.48 18.8299 13.72C19.1499 13.9467 19.5832 14.06 20.1299 14.06Z" fill="black"/>
<path d="M38.8583 5.24001L34.3183 16H31.0983L26.5783 5.24001H29.7983L32.7783 12.56L35.8583 5.24001H38.8583Z" fill="black"/>
<path d="M44.1199 5.08001C45.7865 5.08001 47.0665 5.48001 47.9599 6.28001C48.8532 7.06668 49.2999 8.26001 49.2999 9.86001V16H46.3799V14.66C45.7932 15.66 44.6999 16.16 43.0999 16.16C42.2732 16.16 41.5532 16.02 40.9399 15.74C40.3399 15.46 39.8799 15.0733 39.5599 14.58C39.2399 14.0867 39.0799 13.5267 39.0799 12.9C39.0799 11.9 39.4532 11.1133 40.1999 10.54C40.9599 9.96668 42.1265 9.68001 43.6999 9.68001H46.1799C46.1799 9.00001 45.9732 8.48001 45.5599 8.12001C45.1465 7.74668 44.5265 7.56001 43.6999 7.56001C43.1265 7.56001 42.5599 7.65334 41.9999 7.84001C41.4532 8.01334 40.9865 8.25334 40.5999 8.56001L39.4799 6.38001C40.0665 5.96668 40.7665 5.64668 41.5799 5.42001C42.4065 5.19334 43.2532 5.08001 44.1199 5.08001ZM43.8799 14.06C44.4132 14.06 44.8865 13.94 45.2999 13.7C45.7132 13.4467 46.0065 13.08 46.1799 12.6V11.5H44.0399C42.7599 11.5 42.1199 11.92 42.1199 12.76C42.1199 13.16 42.2732 13.48 42.5799 13.72C42.8999 13.9467 43.3332 14.06 43.8799 14.06Z" fill="black"/>
<path d="M59.0636 15.48C58.757 15.7067 58.377 15.88 57.9236 16C57.4836 16.1067 57.017 16.16 56.5236 16.16C55.2436 16.16 54.2503 15.8333 53.5436 15.18C52.8503 14.5267 52.5036 13.5667 52.5036 12.3V7.88001H50.8436V5.48001H52.5036V2.86001H55.6236V5.48001H58.3036V7.88001H55.6236V12.26C55.6236 12.7133 55.737 13.0667 55.9636 13.32C56.2036 13.56 56.537 13.68 56.9636 13.68C57.457 13.68 57.877 13.5467 58.2236 13.28L59.0636 15.48Z" fill="black"/>
<path d="M60.815 5.24001H63.935V16H60.815V5.24001ZM62.375 3.74001C61.8017 3.74001 61.335 3.57334 60.975 3.24001C60.615 2.90668 60.435 2.49334 60.435 2.00001C60.435 1.50668 60.615 1.09334 60.975 0.76001C61.335 0.426677 61.8017 0.26001 62.375 0.26001C62.9484 0.26001 63.415 0.42001 63.775 0.740011C64.135 1.06001 64.315 1.46001 64.315 1.94001C64.315 2.46001 64.135 2.89334 63.775 3.24001C63.415 3.57334 62.9484 3.74001 62.375 3.74001Z" fill="black"/>
<path d="M73.3707 5.08001C74.704 5.08001 75.7773 5.48001 76.5907 6.28001C77.4173 7.08001 77.8307 8.26668 77.8307 9.84001V16H74.7107V10.32C74.7107 9.46668 74.524 8.83334 74.1507 8.42001C73.7773 7.99334 73.2373 7.78001 72.5307 7.78001C71.744 7.78001 71.1173 8.02668 70.6507 8.52001C70.184 9.00001 69.9507 9.72001 69.9507 10.68V16H66.8307V5.24001H69.8107V6.50001C70.224 6.04668 70.7373 5.70001 71.3507 5.46001C71.964 5.20668 72.6373 5.08001 73.3707 5.08001Z" fill="black"/>
<path d="M84.9988 5.08001C86.6654 5.08001 87.9454 5.48001 88.8388 6.28001C89.7321 7.06668 90.1788 8.26001 90.1788 9.86001V16H87.2588V14.66C86.6721 15.66 85.5788 16.16 83.9788 16.16C83.1521 16.16 82.4321 16.02 81.8188 15.74C81.2188 15.46 80.7588 15.0733 80.4388 14.58C80.1188 14.0867 79.9588 13.5267 79.9588 12.9C79.9588 11.9 80.3321 11.1133 81.0788 10.54C81.8388 9.96668 83.0054 9.68001 84.5788 9.68001H87.0588C87.0588 9.00001 86.8521 8.48001 86.4388 8.12001C86.0255 7.74668 85.4054 7.56001 84.5788 7.56001C84.0054 7.56001 83.4388 7.65334 82.8788 7.84001C82.3321 8.01334 81.8654 8.25334 81.4788 8.56001L80.3588 6.38001C80.9454 5.96668 81.6454 5.64668 82.4588 5.42001C83.2854 5.19334 84.1321 5.08001 84.9988 5.08001ZM84.7588 14.06C85.2921 14.06 85.7654 13.94 86.1788 13.7C86.5921 13.4467 86.8854 13.08 87.0588 12.6V11.5H84.9188C83.6388 11.5 82.9988 11.92 82.9988 12.76C82.9988 13.16 83.1521 13.48 83.4588 13.72C83.7788 13.9467 84.2121 14.06 84.7588 14.06Z" fill="black"/>
</svg>
