<svg width="18" height="15" viewBox="0 0 18 15" fill="none" xmlns="http://www.w3.org/2000/svg">
<path d="M17.6205 2.17393C17.1651 2.78129 16.6147 3.3111 15.9906 3.7429C15.9906 3.90156 15.9906 4.06022 15.9906 4.22769C15.9956 7.10894 14.8447 9.87169 12.7959 11.8966C10.7471 13.9215 7.97186 15.0391 5.09225 14.999C3.42748 15.0045 1.78404 14.6244 0.290649 13.8883C0.210126 13.8532 0.158189 13.7735 0.158495 13.6856V13.5886C0.158495 13.4621 0.261052 13.3595 0.387562 13.3595C2.02398 13.3055 3.60203 12.7382 4.89842 11.7376C3.41723 11.7078 2.08454 10.8303 1.47123 9.48111C1.44025 9.40741 1.44989 9.32289 1.49668 9.25808C1.54346 9.19327 1.62063 9.15753 1.70029 9.16379C2.15046 9.20904 2.60512 9.16714 3.03945 9.04039C1.40434 8.70096 0.175742 7.34352 -9.00902e-05 5.68208C-0.00633942 5.60238 0.029378 5.52518 0.0941588 5.47837C0.15894 5.43156 0.24342 5.42191 0.31708 5.4529C0.755872 5.64652 1.22955 5.7485 1.7091 5.75259C0.276359 4.81221 -0.342491 3.02358 0.202546 1.39825C0.258807 1.24032 0.393973 1.12365 0.558374 1.09111C0.722774 1.05858 0.892158 1.11498 1.00428 1.23959C2.93768 3.29731 5.5942 4.52349 8.41372 4.6596C8.3415 4.37142 8.30598 4.07525 8.308 3.77816C8.33437 2.22032 9.29826 0.832559 10.7484 0.264583C12.1986 -0.303393 13.848 0.0608181 14.9245 1.18671C15.6583 1.04692 16.3677 0.800439 17.0302 0.455108C17.0787 0.424812 17.1402 0.424812 17.1888 0.455108C17.219 0.503656 17.219 0.56522 17.1888 0.613768C16.8679 1.34854 16.3258 1.96482 15.6381 2.37666C16.2403 2.30683 16.8319 2.16477 17.4002 1.95357C17.448 1.921 17.5109 1.921 17.5588 1.95357C17.5989 1.9719 17.6288 2.00697 17.6407 2.04943C17.6526 2.09189 17.6452 2.13743 17.6205 2.17393Z" fill="#8A8A8A"/>
</svg>
