<svg width="16" height="15" viewBox="0 0 16 15" fill="none" xmlns="http://www.w3.org/2000/svg">
<path fill-rule="evenodd" clip-rule="evenodd" d="M0 1.76471C0 0.790086 0.790086 0 1.76471 0C2.23273 0 2.68159 0.185924 3.01254 0.51687C3.34349 0.847817 3.52941 1.29668 3.52941 1.76471C3.52941 2.73933 2.73933 3.52941 1.76471 3.52941C0.790086 3.52941 0 2.73933 0 1.76471ZM15.4412 9.18529C15.4716 7.27491 14.1683 5.60084 12.3088 5.16176C11.0627 4.89344 9.76383 5.24529 8.82353 6.10588V5.73529C8.82353 5.49163 8.62601 5.29411 8.38235 5.29411H6.17647C5.93282 5.29411 5.73529 5.49163 5.73529 5.73529V14.5588C5.73529 14.8025 5.93282 15 6.17647 15H8.38235C8.62601 15 8.82353 14.8025 8.82353 14.5588V9.58235C8.80174 8.69621 9.41934 7.92235 10.2882 7.74705C10.8056 7.65774 11.3359 7.80344 11.735 8.14456C12.1341 8.48568 12.3606 8.98679 12.3529 9.51176V14.5588C12.3529 14.8025 12.5505 15 12.7941 15H15C15.2437 15 15.4412 14.8025 15.4412 14.5588V9.18529ZM3.52941 5.73529V14.5588C3.52941 14.8025 3.33189 15 3.08824 15H0.882353C0.638698 15 0.441176 14.8025 0.441176 14.5588V5.73529C0.441176 5.49164 0.638698 5.29412 0.882353 5.29412H3.08824C3.33189 5.29412 3.52941 5.49164 3.52941 5.73529Z" fill="#8A8A8A"/>
</svg>
